<svg width="90" height="90" viewBox="0 0 90 90" fill="none" xmlns="http://www.w3.org/2000/svg">
<path d="M53.4375 70.6501C53.3386 70.6568 53.2394 70.6568 53.1405 70.6501C52.7988 70.6044 52.4722 70.4808 52.1859 70.2889C51.8995 70.0969 51.6611 69.8418 51.489 69.543L46.2105 60.3991L40.95 59.5846C38.2905 59.2053 35.8259 57.9733 33.9263 56.0738C32.0267 54.1742 30.7948 51.7095 30.4155 49.05L29.637 43.785L20.493 38.511C20.1943 38.339 19.9391 38.1006 19.7472 37.8142C19.5553 37.5279 19.4317 37.2012 19.386 36.8596C19.3407 36.5173 19.3748 36.1692 19.4856 35.8423C19.5964 35.5153 19.781 35.2182 20.025 34.974L27.981 27C28.4027 26.5794 28.9739 26.3432 29.5695 26.343H44.55L55.692 15.1965C57.2098 13.6738 59.0464 12.5066 61.0696 11.7791C63.0927 11.0515 65.252 10.7817 67.392 10.989L76.149 11.8125C76.6707 11.8616 77.1589 12.0912 77.5294 12.4617C77.8999 12.8322 78.1295 13.3204 78.1785 13.842L79.002 22.599C79.2097 24.739 78.94 26.8985 78.2124 28.9216C77.4849 30.9448 76.3175 32.7814 74.7945 34.299L63.639 45.4501V60.4305C63.6389 61.0261 63.4026 61.5974 62.982 62.0191L55.026 69.9751C54.8187 70.1866 54.5717 70.3551 54.2991 70.4709C54.0265 70.5868 53.7337 70.6476 53.4375 70.6501ZM25.281 36.081L32.85 40.437C33.144 40.6065 33.396 40.8402 33.5869 41.1207C33.7778 41.4013 33.9028 41.7214 33.9525 42.057L34.8885 48.3975C35.13 50.1022 35.9189 51.6823 37.1363 52.8998C38.3537 54.1172 39.9338 54.9061 41.6385 55.1476L47.979 56.0835C48.3147 56.1333 48.6348 56.2583 48.9153 56.4492C49.1959 56.6401 49.4296 56.892 49.599 57.1861L53.955 64.7326L59.175 59.5081V44.5186C59.1763 43.9223 59.4143 43.351 59.8365 42.93L71.64 31.1265C72.6934 30.0752 73.5008 28.8036 74.0043 27.4031C74.5077 26.0026 74.6946 24.5079 74.5515 23.0265L73.899 16.1235L66.96 15.4845C65.4787 15.3421 63.9842 15.5293 62.5838 16.0327C61.1834 16.5361 59.9117 17.3432 58.86 18.396L47.07 30.1995C46.6491 30.6218 46.0777 30.8597 45.4815 30.861H30.5055L25.281 36.081Z" fill="url(#paint0_linear_2_34)"/>
<path d="M13.1895 79.0605C12.7443 79.0604 12.3091 78.9282 11.9391 78.6807C11.569 78.4332 11.2807 78.0814 11.1106 77.67C10.9406 77.2585 10.8964 76.8059 10.9837 76.3693C11.071 75.9327 11.2858 75.5319 11.601 75.2175L27.4995 59.319C27.7071 59.1041 27.9554 58.9327 28.2299 58.8148C28.5044 58.6968 28.7996 58.6348 29.0984 58.6322C29.3971 58.6296 29.6934 58.6865 29.9699 58.7996C30.2464 58.9128 30.4977 59.0798 30.7089 59.2911C30.9202 59.5023 31.0872 59.7536 31.2004 60.0301C31.3135 60.3066 31.3704 60.6029 31.3678 60.9016C31.3652 61.2004 31.3032 61.4956 31.1853 61.7701C31.0673 62.0447 30.8959 62.2929 30.681 62.5005L14.7825 78.399C14.5736 78.6086 14.3253 78.7749 14.0519 78.8884C13.7786 79.002 13.4855 79.0604 13.1895 79.0605Z" fill="url(#paint1_linear_2_34)"/>
<path d="M13.0095 60.8085C12.5648 60.8084 12.1301 60.6765 11.7604 60.4296C11.3906 60.1826 11.1022 59.8316 10.9318 59.4209C10.7614 59.0102 10.7164 58.5582 10.8027 58.122C10.889 57.6858 11.1025 57.2849 11.4165 56.97L20.907 47.475C21.3289 47.0525 21.9013 46.8149 22.4984 46.8145C23.0955 46.814 23.6682 47.0508 24.0907 47.4727C24.5132 47.8946 24.7508 48.467 24.7512 49.0641C24.7516 49.6612 24.5149 50.234 24.093 50.6565L14.598 60.1515C14.1763 60.5721 13.6051 60.8083 13.0095 60.8085Z" fill="url(#paint2_linear_2_34)"/>
<path d="M31.257 79.0606C30.8118 79.0605 30.3766 78.9283 30.0065 78.6808C29.6365 78.4332 29.3482 78.0815 29.1781 77.6701C29.008 77.2586 28.9638 76.806 29.0511 76.3694C29.1384 75.9328 29.3533 75.532 29.6685 75.2176L39.15 65.7271C39.3575 65.5122 39.6058 65.3408 39.8803 65.2228C40.1548 65.1049 40.4501 65.0428 40.7488 65.0402C41.0476 65.0376 41.3438 65.0946 41.6204 65.2077C41.8969 65.3208 42.1481 65.4879 42.3594 65.6992C42.5706 65.9104 42.7377 66.1616 42.8508 66.4382C42.9639 66.7147 43.0209 67.011 43.0183 67.3097C43.0157 67.6085 42.9536 67.9037 42.8357 68.1782C42.7178 68.4527 42.5464 68.701 42.3315 68.9086L32.85 78.3991C32.641 78.6087 32.3927 78.775 32.1194 78.8885C31.846 79.002 31.553 79.0605 31.257 79.0606Z" fill="url(#paint3_linear_2_34)"/>
<path d="M63.45 32.85C62.204 32.85 60.9859 32.4805 59.9499 31.7883C58.9139 31.096 58.1064 30.1121 57.6296 28.9609C57.1527 27.8097 57.028 26.543 57.271 25.3209C57.5141 24.0989 58.1142 22.9763 58.9952 22.0952C59.8763 21.2142 60.9988 20.6141 62.2209 20.3711C63.443 20.128 64.7097 20.2527 65.8609 20.7296C67.0121 21.2064 67.996 22.0139 68.6883 23.0499C69.3805 24.0859 69.75 25.304 69.75 26.55C69.75 28.2209 69.0862 29.8233 67.9048 31.0048C66.7233 32.1863 65.1209 32.85 63.45 32.85ZM63.45 24.75C63.094 24.75 62.746 24.8556 62.45 25.0534C62.154 25.2511 61.9233 25.5323 61.787 25.8612C61.6508 26.1901 61.6151 26.552 61.6846 26.9012C61.754 27.2503 61.9255 27.5711 62.1772 27.8228C62.4289 28.0745 62.7497 28.246 63.0988 28.3154C63.448 28.3849 63.8099 28.3492 64.1388 28.213C64.4677 28.0767 64.7489 27.846 64.9466 27.55C65.1444 27.254 65.25 26.906 65.25 26.55C65.25 26.0726 65.0604 25.6148 64.7228 25.2772C64.3852 24.9396 63.9274 24.75 63.45 24.75Z" fill="url(#paint4_linear_2_34)"/>
<defs>
<linearGradient id="paint0_linear_2_34" x1="49.2183" y1="10.9213" x2="49.2183" y2="70.6551" gradientUnits="userSpaceOnUse">
<stop stop-color="#F36E2F"/>
<stop offset="1" stop-color="#FFA519"/>
</linearGradient>
<linearGradient id="paint1_linear_2_34" x1="21.154" y1="58.6321" x2="21.154" y2="79.0605" gradientUnits="userSpaceOnUse">
<stop stop-color="#F36E2F"/>
<stop offset="1" stop-color="#FFA519"/>
</linearGradient>
<linearGradient id="paint2_linear_2_34" x1="17.7556" y1="46.8145" x2="17.7556" y2="60.8085" gradientUnits="userSpaceOnUse">
<stop stop-color="#F36E2F"/>
<stop offset="1" stop-color="#FFA519"/>
</linearGradient>
<linearGradient id="paint3_linear_2_34" x1="36.0129" y1="65.0402" x2="36.0129" y2="79.0606" gradientUnits="userSpaceOnUse">
<stop stop-color="#F36E2F"/>
<stop offset="1" stop-color="#FFA519"/>
</linearGradient>
<linearGradient id="paint4_linear_2_34" x1="63.45" y1="20.25" x2="63.45" y2="32.85" gradientUnits="userSpaceOnUse">
<stop stop-color="#F36E2F"/>
<stop offset="1" stop-color="#FFA519"/>
</linearGradient>
</defs>
</svg>
