<svg width="81" height="81" viewBox="0 0 81 81" fill="none" xmlns="http://www.w3.org/2000/svg">
<path d="M40.5 69.2023C39.7185 69.2062 38.9473 69.0247 38.2496 68.6726C37.5519 68.3206 36.9476 67.8081 36.4865 67.1773C29.6663 57.9676 18.225 41.1682 18.225 32.1205C18.225 26.2128 20.5718 20.547 24.7492 16.3697C28.9266 12.1923 34.5923 9.84546 40.5 9.84546C46.4077 9.84546 52.0734 12.1923 56.2508 16.3697C60.4282 20.547 62.775 26.2128 62.775 32.1205C62.775 41.1682 51.3338 57.9676 44.5136 67.1773C44.0524 67.8081 43.4481 68.3206 42.7504 68.6726C42.0527 69.0247 41.2815 69.2062 40.5 69.2023ZM40.5 13.8955C35.6681 13.9008 31.0356 15.8227 27.6189 19.2394C24.2022 22.656 22.2804 27.2885 22.275 32.1205C22.275 37.7905 28.8036 50.0012 39.7386 64.7675C39.8268 64.8864 39.9415 64.9831 40.0738 65.0497C40.206 65.1163 40.352 65.1509 40.5 65.1509C40.6481 65.1509 40.794 65.1163 40.9263 65.0497C41.0585 64.9831 41.1733 64.8864 41.2614 64.7675C52.1964 50.0012 58.725 37.7945 58.725 32.1205C58.7197 27.2885 56.7978 22.656 53.3811 19.2394C49.9644 15.8227 45.3319 13.9008 40.5 13.8955Z" fill="url(#paint0_linear_2_40)"/>
<path d="M69.1294 71.0168H11.8706C11.3335 71.0168 10.8184 70.8034 10.4387 70.4237C10.0589 70.0439 9.84555 69.5289 9.84555 68.9918C9.84555 68.4547 10.0589 67.9397 10.4387 67.5599C10.8184 67.1801 11.3335 66.9668 11.8706 66.9668H69.1294C69.6665 66.9668 70.1816 67.1801 70.5613 67.5599C70.9411 67.9397 71.1544 68.4547 71.1544 68.9918C71.1544 69.5289 70.9411 70.0439 70.5613 70.4237C70.1816 70.8034 69.6665 71.0168 69.1294 71.0168Z" fill="url(#paint1_linear_2_40)"/>
<path d="M40.5 32.57C39.0982 32.57 37.7279 32.1543 36.5624 31.3756C35.3969 30.5968 34.4884 29.4899 33.952 28.1948C33.4156 26.8997 33.2752 25.4747 33.5487 24.0998C33.8222 22.725 34.4972 21.4621 35.4884 20.4709C36.4796 19.4797 37.7425 18.8047 39.1173 18.5312C40.4921 18.2577 41.9172 18.3981 43.2123 18.9345C44.5073 19.471 45.6143 20.3794 46.3931 21.5449C47.1718 22.7105 47.5875 24.0807 47.5875 25.4825C47.5854 27.3616 46.838 29.1631 45.5093 30.4918C44.1806 31.8205 42.3791 32.5679 40.5 32.57ZM40.5 22.445C39.8992 22.445 39.312 22.6232 38.8125 22.9569C38.3129 23.2907 37.9236 23.7651 37.6937 24.3201C37.4638 24.8752 37.4037 25.4859 37.5209 26.0751C37.6381 26.6643 37.9274 27.2056 38.3522 27.6304C38.777 28.0552 39.3182 28.3445 39.9074 28.4617C40.4966 28.5789 41.1074 28.5187 41.6624 28.2888C42.2174 28.0589 42.6918 27.6696 43.0256 27.1701C43.3594 26.6706 43.5375 26.0833 43.5375 25.4825C43.5375 24.6769 43.2175 23.9043 42.6478 23.3347C42.0782 22.765 41.3056 22.445 40.5 22.445Z" fill="url(#paint2_linear_2_40)"/>
<path d="M60.75 62.7751H46.6398C46.1027 62.7751 45.5877 62.5618 45.2079 62.182C44.8282 61.8022 44.6148 61.2872 44.6148 60.7501C44.6148 60.213 44.8282 59.698 45.2079 59.3182C45.5877 58.9384 46.1027 58.7251 46.6398 58.7251H60.75C61.2871 58.7251 61.8021 58.9384 62.1819 59.3182C62.5617 59.698 62.775 60.213 62.775 60.7501C62.775 61.2872 62.5617 61.8022 62.1819 62.182C61.8021 62.5618 61.2871 62.7751 60.75 62.7751Z" fill="url(#paint3_linear_2_40)"/>
<path d="M34.3602 62.7751H20.25C19.7129 62.7751 19.1979 62.5618 18.8181 62.182C18.4384 61.8022 18.225 61.2872 18.225 60.7501C18.225 60.213 18.4384 59.698 18.8181 59.3182C19.1979 58.9384 19.7129 58.7251 20.25 58.7251H34.3602C34.8973 58.7251 35.4123 58.9384 35.7921 59.3182C36.1719 59.698 36.3852 60.213 36.3852 60.7501C36.3852 61.2872 36.1719 61.8022 35.7921 62.182C35.4123 62.5618 34.8973 62.7751 34.3602 62.7751Z" fill="url(#paint4_linear_2_40)"/>
<defs>
<linearGradient id="paint0_linear_2_40" x1="40.5" y1="9.84546" x2="40.5" y2="69.2023" gradientUnits="userSpaceOnUse">
<stop stop-color="#F36E2F"/>
<stop offset="1" stop-color="#FFA519"/>
</linearGradient>
<linearGradient id="paint1_linear_2_40" x1="40.5" y1="66.9668" x2="40.5" y2="71.0168" gradientUnits="userSpaceOnUse">
<stop stop-color="#F36E2F"/>
<stop offset="1" stop-color="#FFA519"/>
</linearGradient>
<linearGradient id="paint2_linear_2_40" x1="40.5" y1="18.395" x2="40.5" y2="32.57" gradientUnits="userSpaceOnUse">
<stop stop-color="#F36E2F"/>
<stop offset="1" stop-color="#FFA519"/>
</linearGradient>
<linearGradient id="paint3_linear_2_40" x1="53.6949" y1="58.7251" x2="53.6949" y2="62.7751" gradientUnits="userSpaceOnUse">
<stop stop-color="#F36E2F"/>
<stop offset="1" stop-color="#FFA519"/>
</linearGradient>
<linearGradient id="paint4_linear_2_40" x1="27.3051" y1="58.7251" x2="27.3051" y2="62.7751" gradientUnits="userSpaceOnUse">
<stop stop-color="#F36E2F"/>
<stop offset="1" stop-color="#FFA519"/>
</linearGradient>
</defs>
</svg>
