<svg width="84" height="84" viewBox="0 0 84 84" fill="none" xmlns="http://www.w3.org/2000/svg">
<g clip-path="url(#clip0_2_46)">
<path d="M49.875 54.3507L29.6494 34.125L42 21.7744L62.2256 42L49.875 54.3507ZM33.3506 34.125L49.875 50.6494L58.5244 42L42 25.4757L33.3506 34.125Z" fill="url(#paint0_linear_2_46)" stroke="url(#paint1_linear_2_46)"/>
<path d="M57.3678 20.0654L55.5116 21.9215L62.0731 28.483L63.9293 26.6269L57.3678 20.0654Z" fill="url(#paint2_linear_2_46)" stroke="url(#paint3_linear_2_46)"/>
<path d="M61.3053 16.1243L59.4491 17.9805L66.0106 24.542L67.8668 22.6858L61.3053 16.1243Z" fill="url(#paint4_linear_2_46)" stroke="url(#paint5_linear_2_46)"/>
<path d="M65.2428 12.1965L63.3866 14.0526L69.9481 20.6141L71.8043 18.758L65.2428 12.1965Z" fill="url(#paint6_linear_2_46)" stroke="url(#paint7_linear_2_46)"/>
<path d="M69.1803 8.25554L67.3241 10.1117L73.8856 16.6732L75.7418 14.817L69.1803 8.25554Z" fill="url(#paint8_linear_2_46)" stroke="url(#paint9_linear_2_46)"/>
<path d="M82.6875 10.7362L78.6187 9.90938L78.2775 5.73562L74.1037 5.39438L73.2506 1.3125H67.7119L55.755 13.2563C53.6977 11.4134 51.0127 10.4286 48.2518 10.5043C45.4909 10.58 42.8638 11.7104 40.9106 13.6631L23.8481 30.7256C22.0706 32.499 20.6728 34.6157 19.74 36.9469C18.9452 38.9493 17.748 40.7674 16.2225 42.2887L3.55685 54.9675C2.8457 55.677 2.28149 56.5199 1.89653 57.4478C1.51157 58.3757 1.31342 59.3704 1.31342 60.375C1.31342 61.3796 1.51157 62.3743 1.89653 63.3022C2.28149 64.2301 2.8457 65.073 3.55685 65.7825L18.2175 80.4431C18.927 81.1543 19.7699 81.7185 20.6978 82.1034C21.6257 82.4884 22.6204 82.6866 23.625 82.6866C24.6296 82.6866 25.6243 82.4884 26.5522 82.1034C27.4801 81.7185 28.3229 81.1543 29.0325 80.4431L41.7375 67.7381C43.2588 66.2126 45.0769 65.0154 47.0793 64.2206C49.4105 63.2878 51.5272 61.89 53.3006 60.1125L70.3631 43.05C72.3158 41.0968 73.4462 38.4697 73.5219 35.7088C73.5976 32.9479 72.6128 30.2629 70.77 28.2056L82.6875 16.2881V10.7362ZM48.5625 13.125C50.5237 13.1333 52.4178 13.8406 53.9044 15.12L49.0612 19.9631L43.8112 14.7131C45.1927 13.7052 46.8526 13.1503 48.5625 13.125ZM20.0681 78.5925L5.40747 63.9319C4.47107 62.9842 3.94334 61.7073 3.93747 60.375C3.94097 59.1267 4.40882 57.9243 5.24997 57.0019L26.9981 78.75C26.0298 79.5892 24.7837 80.038 23.5027 80.0088C22.2216 79.9797 20.9973 79.4748 20.0681 78.5925ZM51.45 58.2619C49.9287 59.7874 48.1106 60.9846 46.1081 61.7794C43.777 62.7122 41.6602 64.11 39.8868 65.8875L28.875 76.8994L7.1006 55.125L18.1125 44.1131C19.89 42.3398 21.2878 40.223 22.2206 37.8919C23.0154 35.8894 24.2126 34.0713 25.7381 32.55L41.8425 16.4587L67.5412 42.1575L51.45 58.2619ZM70.875 35.4375C70.8665 37.1521 70.3253 38.8216 69.3262 40.215L64.0762 34.965L68.9193 30.1219C70.1787 31.6071 70.8715 33.4902 70.875 35.4375ZM80.0625 15.2119L62.1862 33.0881L50.9118 21.8138L68.7881 3.9375H71.1243L71.9381 7.875L75.8756 8.20312L76.1906 12.1406L80.1281 12.9412L80.0625 15.2119Z" fill="url(#paint10_linear_2_46)" stroke="url(#paint11_linear_2_46)"/>
<path d="M42 59.0625C41.2212 59.0625 40.46 58.8316 39.8124 58.3989C39.1649 57.9663 38.6602 57.3513 38.3622 56.6318C38.0642 55.9123 37.9862 55.1206 38.1382 54.3568C38.2901 53.593 38.6651 52.8914 39.2158 52.3408C39.7664 51.7901 40.468 51.4151 41.2318 51.2632C41.9956 51.1112 42.7873 51.1892 43.5068 51.4872C44.2263 51.7852 44.8413 52.2899 45.2739 52.9374C45.7066 53.585 45.9375 54.3462 45.9375 55.125C45.9375 56.1693 45.5227 57.1708 44.7842 57.9092C44.0458 58.6477 43.0443 59.0625 42 59.0625ZM42 53.8125C41.7404 53.8125 41.4867 53.8895 41.2708 54.0337C41.055 54.1779 40.8868 54.3829 40.7874 54.6227C40.6881 54.8626 40.6621 55.1265 40.7127 55.3811C40.7634 55.6357 40.8884 55.8695 41.0719 56.0531C41.2555 56.2366 41.4893 56.3616 41.7439 56.4123C41.9985 56.4629 42.2624 56.4369 42.5023 56.3376C42.7421 56.2383 42.9471 56.07 43.0913 55.8542C43.2355 55.6383 43.3125 55.3846 43.3125 55.125C43.3125 54.7769 43.1742 54.4431 42.9281 54.1969C42.6819 53.9508 42.3481 53.8125 42 53.8125Z" fill="url(#paint12_linear_2_46)"/>
<path d="M35.4375 65.625C34.6587 65.625 33.8975 65.3941 33.2499 64.9614C32.6024 64.5288 32.0977 63.9138 31.7997 63.1943C31.5017 62.4748 31.4237 61.6831 31.5757 60.9193C31.7276 60.1555 32.1026 59.4539 32.6533 58.9033C33.2039 58.3526 33.9055 57.9776 34.6693 57.8257C35.4331 57.6737 36.2248 57.7517 36.9443 58.0497C37.6638 58.3477 38.2788 58.8524 38.7114 59.4999C39.1441 60.1475 39.375 60.9087 39.375 61.6875C39.375 62.7318 38.9602 63.7333 38.2217 64.4717C37.4833 65.2102 36.4818 65.625 35.4375 65.625ZM35.4375 60.375C35.1779 60.375 34.9242 60.452 34.7083 60.5962C34.4925 60.7404 34.3243 60.9454 34.2249 61.1852C34.1256 61.4251 34.0996 61.689 34.1502 61.9436C34.2009 62.1982 34.3259 62.432 34.5094 62.6156C34.693 62.7991 34.9268 62.9241 35.1814 62.9748C35.436 63.0254 35.6999 62.9994 35.9398 62.9001C36.1796 62.8008 36.3846 62.6325 36.5288 62.4167C36.673 62.2008 36.75 61.9471 36.75 61.6875C36.75 61.3394 36.6117 61.0056 36.3656 60.7594C36.1194 60.5133 35.7856 60.375 35.4375 60.375Z" fill="url(#paint13_linear_2_46)"/>
<path d="M28.875 72.1875C28.0962 72.1875 27.335 71.9566 26.6874 71.5239C26.0399 71.0913 25.5352 70.4763 25.2372 69.7568C24.9392 69.0373 24.8612 68.2456 25.0132 67.4818C25.1651 66.718 25.5401 66.0164 26.0908 65.4658C26.6414 64.9151 27.343 64.5401 28.1068 64.3882C28.8706 64.2362 29.6623 64.3142 30.3818 64.6122C31.1013 64.9102 31.7163 65.4149 32.1489 66.0624C32.5816 66.71 32.8125 67.4712 32.8125 68.25C32.8125 69.2943 32.3977 70.2958 31.6592 71.0342C30.9208 71.7727 29.9193 72.1875 28.875 72.1875ZM28.875 66.9375C28.6154 66.9375 28.3617 67.0145 28.1458 67.1587C27.93 67.3029 27.7618 67.5079 27.6624 67.7477C27.5631 67.9876 27.5371 68.2515 27.5877 68.5061C27.6384 68.7607 27.7634 68.9945 27.9469 69.1781C28.1305 69.3616 28.3643 69.4866 28.6189 69.5373C28.8735 69.5879 29.1374 69.5619 29.3773 69.4626C29.6171 69.3633 29.8221 69.195 29.9663 68.9792C30.1105 68.7633 30.1875 68.5096 30.1875 68.25C30.1875 67.9019 30.0492 67.5681 29.8031 67.3219C29.5569 67.0758 29.2231 66.9375 28.875 66.9375Z" fill="url(#paint14_linear_2_46)"/>
<path d="M35.4375 52.5C34.6587 52.5 33.8975 52.2691 33.2499 51.8364C32.6024 51.4038 32.0977 50.7888 31.7997 50.0693C31.5017 49.3498 31.4237 48.5581 31.5757 47.7943C31.7276 47.0305 32.1026 46.3289 32.6533 45.7783C33.2039 45.2276 33.9055 44.8526 34.6693 44.7007C35.4331 44.5487 36.2248 44.6267 36.9443 44.9247C37.6638 45.2227 38.2788 45.7274 38.7114 46.3749C39.1441 47.0225 39.375 47.7837 39.375 48.5625C39.375 49.6068 38.9602 50.6083 38.2217 51.3467C37.4833 52.0852 36.4818 52.5 35.4375 52.5ZM35.4375 47.25C35.1779 47.25 34.9242 47.327 34.7083 47.4712C34.4925 47.6154 34.3243 47.8204 34.2249 48.0602C34.1256 48.3001 34.0996 48.564 34.1502 48.8186C34.2009 49.0732 34.3259 49.307 34.5094 49.4906C34.693 49.6741 34.9268 49.7991 35.1814 49.8498C35.436 49.9004 35.6999 49.8744 35.9398 49.7751C36.1796 49.6758 36.3846 49.5075 36.5288 49.2917C36.673 49.0758 36.75 48.8221 36.75 48.5625C36.75 48.2144 36.6117 47.8806 36.3656 47.6344C36.1194 47.3883 35.7856 47.25 35.4375 47.25Z" fill="url(#paint15_linear_2_46)"/>
<path d="M28.875 59.0625C28.0962 59.0625 27.335 58.8316 26.6874 58.3989C26.0399 57.9663 25.5352 57.3513 25.2372 56.6318C24.9392 55.9123 24.8612 55.1206 25.0132 54.3568C25.1651 53.593 25.5401 52.8914 26.0908 52.3408C26.6414 51.7901 27.343 51.4151 28.1068 51.2632C28.8706 51.1112 29.6623 51.1892 30.3818 51.4872C31.1013 51.7852 31.7163 52.2899 32.1489 52.9374C32.5816 53.585 32.8125 54.3462 32.8125 55.125C32.8125 56.1693 32.3977 57.1708 31.6592 57.9092C30.9208 58.6477 29.9193 59.0625 28.875 59.0625ZM28.875 53.8125C28.6154 53.8125 28.3617 53.8895 28.1458 54.0337C27.93 54.1779 27.7618 54.3829 27.6624 54.6227C27.5631 54.8626 27.5371 55.1265 27.5877 55.3811C27.6384 55.6357 27.7634 55.8695 27.9469 56.0531C28.1305 56.2366 28.3643 56.3616 28.6189 56.4123C28.8735 56.4629 29.1374 56.4369 29.3773 56.3376C29.6171 56.2383 29.8221 56.07 29.9663 55.8542C30.1105 55.6383 30.1875 55.3846 30.1875 55.125C30.1875 54.7769 30.0492 54.4431 29.8031 54.1969C29.5569 53.9508 29.2231 53.8125 28.875 53.8125Z" fill="url(#paint16_linear_2_46)"/>
<path d="M22.3125 65.625C21.5337 65.625 20.7725 65.3941 20.1249 64.9614C19.4774 64.5288 18.9727 63.9138 18.6747 63.1943C18.3767 62.4748 18.2987 61.6831 18.4507 60.9193C18.6026 60.1555 18.9776 59.4539 19.5283 58.9033C20.0789 58.3526 20.7805 57.9776 21.5443 57.8257C22.3081 57.6737 23.0998 57.7517 23.8193 58.0497C24.5388 58.3477 25.1538 58.8524 25.5864 59.4999C26.0191 60.1475 26.25 60.9087 26.25 61.6875C26.25 62.7318 25.8352 63.7333 25.0967 64.4717C24.3583 65.2102 23.3568 65.625 22.3125 65.625ZM22.3125 60.375C22.0529 60.375 21.7992 60.452 21.5833 60.5962C21.3675 60.7404 21.1993 60.9454 21.0999 61.1852C21.0006 61.4251 20.9746 61.689 21.0252 61.9436C21.0759 62.1982 21.2009 62.432 21.3844 62.6156C21.568 62.7991 21.8018 62.9241 22.0564 62.9748C22.311 63.0254 22.5749 62.9994 22.8148 62.9001C23.0546 62.8008 23.2596 62.6325 23.4038 62.4167C23.548 62.2008 23.625 61.9471 23.625 61.6875C23.625 61.3394 23.4867 61.0056 23.2406 60.7594C22.9944 60.5133 22.6606 60.375 22.3125 60.375Z" fill="url(#paint17_linear_2_46)"/>
<path d="M28.875 45.9375C28.0962 45.9375 27.335 45.7066 26.6874 45.2739C26.0399 44.8413 25.5352 44.2263 25.2372 43.5068C24.9392 42.7873 24.8612 41.9956 25.0132 41.2318C25.1651 40.468 25.5401 39.7664 26.0908 39.2158C26.6414 38.6651 27.343 38.2901 28.1068 38.1382C28.8706 37.9862 29.6623 38.0642 30.3818 38.3622C31.1013 38.6602 31.7163 39.1649 32.1489 39.8124C32.5816 40.46 32.8125 41.2212 32.8125 42C32.8125 43.0443 32.3977 44.0458 31.6592 44.7842C30.9208 45.5227 29.9193 45.9375 28.875 45.9375ZM28.875 40.6875C28.6154 40.6875 28.3617 40.7645 28.1458 40.9087C27.93 41.0529 27.7618 41.2579 27.6624 41.4977C27.5631 41.7376 27.5371 42.0015 27.5877 42.2561C27.6384 42.5107 27.7634 42.7445 27.9469 42.9281C28.1305 43.1116 28.3643 43.2366 28.6189 43.2873C28.8735 43.3379 29.1374 43.3119 29.3773 43.2126C29.6171 43.1133 29.8221 42.945 29.9663 42.7292C30.1105 42.5133 30.1875 42.2596 30.1875 42C30.1875 41.6519 30.0492 41.3181 29.8031 41.0719C29.5569 40.8258 29.2231 40.6875 28.875 40.6875Z" fill="url(#paint18_linear_2_46)"/>
<path d="M22.3125 52.5C21.5337 52.5 20.7725 52.2691 20.1249 51.8364C19.4774 51.4038 18.9727 50.7888 18.6747 50.0693C18.3767 49.3498 18.2987 48.5581 18.4507 47.7943C18.6026 47.0305 18.9776 46.3289 19.5283 45.7783C20.0789 45.2276 20.7805 44.8526 21.5443 44.7007C22.3081 44.5487 23.0998 44.6267 23.8193 44.9247C24.5388 45.2227 25.1538 45.7274 25.5864 46.3749C26.0191 47.0225 26.25 47.7837 26.25 48.5625C26.25 49.6068 25.8352 50.6083 25.0967 51.3467C24.3583 52.0852 23.3568 52.5 22.3125 52.5ZM22.3125 47.25C22.0529 47.25 21.7992 47.327 21.5833 47.4712C21.3675 47.6154 21.1993 47.8204 21.0999 48.0602C21.0006 48.3001 20.9746 48.564 21.0252 48.8186C21.0759 49.0732 21.2009 49.307 21.3844 49.4906C21.568 49.6741 21.8018 49.7991 22.0564 49.8498C22.311 49.9004 22.5749 49.8744 22.8148 49.7751C23.0546 49.6758 23.2596 49.5075 23.4038 49.2917C23.548 49.0758 23.625 48.8221 23.625 48.5625C23.625 48.2144 23.4867 47.8806 23.2406 47.6344C22.9944 47.3883 22.6606 47.25 22.3125 47.25Z" fill="url(#paint19_linear_2_46)"/>
<path d="M15.75 59.0625C14.9712 59.0625 14.21 58.8316 13.5624 58.3989C12.9149 57.9663 12.4102 57.3513 12.1122 56.6318C11.8142 55.9123 11.7362 55.1206 11.8882 54.3568C12.0401 53.593 12.4151 52.8914 12.9658 52.3408C13.5164 51.7901 14.218 51.4151 14.9818 51.2632C15.7456 51.1112 16.5373 51.1892 17.2568 51.4872C17.9763 51.7852 18.5913 52.2899 19.0239 52.9374C19.4566 53.585 19.6875 54.3462 19.6875 55.125C19.6875 56.1693 19.2727 57.1708 18.5342 57.9092C17.7958 58.6477 16.7943 59.0625 15.75 59.0625ZM15.75 53.8125C15.4904 53.8125 15.2367 53.8895 15.0208 54.0337C14.805 54.1779 14.6368 54.3829 14.5374 54.6227C14.4381 54.8626 14.4121 55.1265 14.4627 55.3811C14.5134 55.6357 14.6384 55.8695 14.8219 56.0531C15.0055 56.2366 15.2393 56.3616 15.4939 56.4123C15.7485 56.4629 16.0124 56.4369 16.2523 56.3376C16.4921 56.2383 16.6971 56.07 16.8413 55.8542C16.9855 55.6383 17.0625 55.3846 17.0625 55.125C17.0625 54.7769 16.9242 54.4431 16.6781 54.1969C16.4319 53.9508 16.0981 53.8125 15.75 53.8125Z" fill="url(#paint20_linear_2_46)"/>
</g>
<defs>
<linearGradient id="paint0_linear_2_46" x1="45.9375" y1="21.7744" x2="45.9375" y2="54.3507" gradientUnits="userSpaceOnUse">
<stop stop-color="#F36E2F"/>
<stop offset="1" stop-color="#FFA519"/>
</linearGradient>
<linearGradient id="paint1_linear_2_46" x1="45.9375" y1="21.7744" x2="45.9375" y2="54.3507" gradientUnits="userSpaceOnUse">
<stop stop-color="#F36E2F"/>
<stop offset="1" stop-color="#FFA519"/>
</linearGradient>
<linearGradient id="paint2_linear_2_46" x1="56.4397" y1="20.9934" x2="63.0012" y2="27.5549" gradientUnits="userSpaceOnUse">
<stop stop-color="#F36E2F"/>
<stop offset="1" stop-color="#FFA519"/>
</linearGradient>
<linearGradient id="paint3_linear_2_46" x1="56.4397" y1="20.9934" x2="63.0012" y2="27.5549" gradientUnits="userSpaceOnUse">
<stop stop-color="#F36E2F"/>
<stop offset="1" stop-color="#FFA519"/>
</linearGradient>
<linearGradient id="paint4_linear_2_46" x1="60.3772" y1="17.0524" x2="66.9387" y2="23.6139" gradientUnits="userSpaceOnUse">
<stop stop-color="#F36E2F"/>
<stop offset="1" stop-color="#FFA519"/>
</linearGradient>
<linearGradient id="paint5_linear_2_46" x1="60.3772" y1="17.0524" x2="66.9387" y2="23.6139" gradientUnits="userSpaceOnUse">
<stop stop-color="#F36E2F"/>
<stop offset="1" stop-color="#FFA519"/>
</linearGradient>
<linearGradient id="paint6_linear_2_46" x1="64.3147" y1="13.1245" x2="70.8762" y2="19.686" gradientUnits="userSpaceOnUse">
<stop stop-color="#F36E2F"/>
<stop offset="1" stop-color="#FFA519"/>
</linearGradient>
<linearGradient id="paint7_linear_2_46" x1="64.3147" y1="13.1245" x2="70.8762" y2="19.686" gradientUnits="userSpaceOnUse">
<stop stop-color="#F36E2F"/>
<stop offset="1" stop-color="#FFA519"/>
</linearGradient>
<linearGradient id="paint8_linear_2_46" x1="68.2522" y1="9.18362" x2="74.8137" y2="15.7451" gradientUnits="userSpaceOnUse">
<stop stop-color="#F36E2F"/>
<stop offset="1" stop-color="#FFA519"/>
</linearGradient>
<linearGradient id="paint9_linear_2_46" x1="68.2522" y1="9.18362" x2="74.8137" y2="15.7451" gradientUnits="userSpaceOnUse">
<stop stop-color="#F36E2F"/>
<stop offset="1" stop-color="#FFA519"/>
</linearGradient>
<linearGradient id="paint10_linear_2_46" x1="42.0004" y1="1.3125" x2="42.0004" y2="82.6866" gradientUnits="userSpaceOnUse">
<stop stop-color="#F36E2F"/>
<stop offset="1" stop-color="#FFA519"/>
</linearGradient>
<linearGradient id="paint11_linear_2_46" x1="42.0004" y1="1.3125" x2="42.0004" y2="82.6866" gradientUnits="userSpaceOnUse">
<stop stop-color="#F36E2F"/>
<stop offset="1" stop-color="#FFA519"/>
</linearGradient>
<linearGradient id="paint12_linear_2_46" x1="42" y1="51.1875" x2="42" y2="59.0625" gradientUnits="userSpaceOnUse">
<stop stop-color="#F36E2F"/>
<stop offset="1" stop-color="#FFA519"/>
</linearGradient>
<linearGradient id="paint13_linear_2_46" x1="35.4375" y1="57.75" x2="35.4375" y2="65.625" gradientUnits="userSpaceOnUse">
<stop stop-color="#F36E2F"/>
<stop offset="1" stop-color="#FFA519"/>
</linearGradient>
<linearGradient id="paint14_linear_2_46" x1="28.875" y1="64.3125" x2="28.875" y2="72.1875" gradientUnits="userSpaceOnUse">
<stop stop-color="#F36E2F"/>
<stop offset="1" stop-color="#FFA519"/>
</linearGradient>
<linearGradient id="paint15_linear_2_46" x1="35.4375" y1="44.625" x2="35.4375" y2="52.5" gradientUnits="userSpaceOnUse">
<stop stop-color="#F36E2F"/>
<stop offset="1" stop-color="#FFA519"/>
</linearGradient>
<linearGradient id="paint16_linear_2_46" x1="28.875" y1="51.1875" x2="28.875" y2="59.0625" gradientUnits="userSpaceOnUse">
<stop stop-color="#F36E2F"/>
<stop offset="1" stop-color="#FFA519"/>
</linearGradient>
<linearGradient id="paint17_linear_2_46" x1="22.3125" y1="57.75" x2="22.3125" y2="65.625" gradientUnits="userSpaceOnUse">
<stop stop-color="#F36E2F"/>
<stop offset="1" stop-color="#FFA519"/>
</linearGradient>
<linearGradient id="paint18_linear_2_46" x1="28.875" y1="38.0625" x2="28.875" y2="45.9375" gradientUnits="userSpaceOnUse">
<stop stop-color="#F36E2F"/>
<stop offset="1" stop-color="#FFA519"/>
</linearGradient>
<linearGradient id="paint19_linear_2_46" x1="22.3125" y1="44.625" x2="22.3125" y2="52.5" gradientUnits="userSpaceOnUse">
<stop stop-color="#F36E2F"/>
<stop offset="1" stop-color="#FFA519"/>
</linearGradient>
<linearGradient id="paint20_linear_2_46" x1="15.75" y1="51.1875" x2="15.75" y2="59.0625" gradientUnits="userSpaceOnUse">
<stop stop-color="#F36E2F"/>
<stop offset="1" stop-color="#FFA519"/>
</linearGradient>
<clipPath id="clip0_2_46">
<rect width="84" height="84" fill="white"/>
</clipPath>
</defs>
</svg>
