<svg width="90" height="90" viewBox="0 0 90 90" fill="none" xmlns="http://www.w3.org/2000/svg">
<g clip-path="url(#clip0_2_28)">
<mask id="path-1-outside-1_2_28" maskUnits="userSpaceOnUse" x="6" y="-1" width="77" height="77" fill="black">
<rect fill="white" x="6" y="-1" width="77" height="77"/>
<path d="M49.927 17.2768H62.1733C62.4753 17.2768 62.765 17.3965 62.9786 17.6097C63.1921 17.8229 63.3121 18.112 63.3121 18.4134C63.3121 18.7149 63.1921 19.004 62.9786 19.2172C62.765 19.4304 62.4753 19.5501 62.1733 19.5501H49.927C49.625 19.5501 49.3354 19.4304 49.1218 19.2172C48.9082 19.004 48.7882 18.7149 48.7882 18.4134C48.7882 18.112 48.9082 17.8229 49.1218 17.6097C49.3354 17.3965 49.625 17.2768 49.927 17.2768ZM42.4464 19.5501H43.859C44.161 19.5501 44.4507 19.4304 44.6643 19.2172C44.8778 19.004 44.9978 18.7149 44.9978 18.4134C44.9978 18.112 44.8778 17.8229 44.6643 17.6097C44.4507 17.3965 44.161 17.2768 43.859 17.2768H42.4464C42.1443 17.2768 41.8547 17.3965 41.6411 17.6097C41.4275 17.8229 41.3076 18.112 41.3076 18.4134C41.3076 18.7149 41.4275 19.004 41.6411 19.2172C41.8547 19.4304 42.1443 19.5501 42.4464 19.5501ZM49.927 11.9734H62.1733C62.4642 11.9577 62.7381 11.8312 62.9384 11.6201C63.1388 11.409 63.2505 11.1292 63.2505 10.8384C63.2505 10.5476 63.1388 10.2678 62.9384 10.0567C62.7381 9.84558 62.4642 9.71913 62.1733 9.70339H49.927C49.6361 9.71913 49.3623 9.84558 49.1619 10.0567C48.9616 10.2678 48.8499 10.5476 48.8499 10.8384C48.8499 11.1292 48.9616 11.409 49.1619 11.6201C49.3623 11.8312 49.6361 11.9577 49.927 11.9734ZM42.4464 27.1235H51.6536C51.9445 27.1077 52.2184 26.9813 52.4187 26.7702C52.6191 26.559 52.7308 26.2793 52.7308 25.9885C52.7308 25.6977 52.6191 25.4179 52.4187 25.2068C52.2184 24.9957 51.9445 24.8692 51.6536 24.8535H42.4464C42.1554 24.8692 41.8816 24.9957 41.6813 25.2068C41.4809 25.4179 41.3692 25.6977 41.3692 25.9885C41.3692 26.2793 41.4809 26.559 41.6813 26.7702C41.8816 26.9813 42.1554 27.1077 42.4464 27.1235ZM42.4464 34.6969H48.6179C48.9089 34.6811 49.1827 34.5547 49.383 34.3435C49.5834 34.1324 49.6951 33.8527 49.6951 33.5619C49.6951 33.271 49.5834 32.9913 49.383 32.7802C49.1827 32.569 48.9089 32.4426 48.6179 32.4268H42.4464C42.1554 32.4426 41.8816 32.569 41.6813 32.7802C41.4809 32.9913 41.3692 33.271 41.3692 33.5619C41.3692 33.8527 41.4809 34.1324 41.6813 34.3435C41.8816 34.5547 42.1554 34.6811 42.4464 34.6969ZM42.4464 42.2736H48.6179C48.92 42.2736 49.2096 42.1538 49.4232 41.9407C49.6367 41.7275 49.7567 41.4384 49.7567 41.1369C49.7567 40.8354 49.6367 40.5463 49.4232 40.3332C49.2096 40.12 48.92 40.0002 48.6179 40.0002H42.4464C42.1443 40.0002 41.8547 40.12 41.6411 40.3332C41.4275 40.5463 41.3076 40.8354 41.3076 41.1369C41.3076 41.4384 41.4275 41.7275 41.6411 41.9407C41.8547 42.1538 42.1443 42.2736 42.4464 42.2736ZM52.7991 48.7103C52.7982 48.4094 52.6778 48.1211 52.4644 47.9087C52.2509 47.6962 51.9617 47.5769 51.6603 47.5769H42.4464C42.2919 47.5686 42.1373 47.5917 41.992 47.645C41.8468 47.6983 41.7139 47.7805 41.6016 47.8867C41.4892 47.9929 41.3998 48.1209 41.3386 48.2628C41.2775 48.4047 41.2459 48.5575 41.2459 48.7119C41.2459 48.8664 41.2775 49.0192 41.3386 49.1611C41.3998 49.303 41.4892 49.4309 41.6016 49.5372C41.7139 49.6434 41.8468 49.7256 41.992 49.7789C42.1373 49.8322 42.2919 49.8553 42.4464 49.847H51.6536C51.9556 49.847 52.2453 49.7272 52.4589 49.514C52.6724 49.3009 52.7924 49.0117 52.7924 48.7103H52.7991ZM42.4464 11.9734H43.859C44.1499 11.9577 44.4238 11.8312 44.6241 11.6201C44.8245 11.409 44.9362 11.1292 44.9362 10.8384C44.9362 10.5476 44.8245 10.2678 44.6241 10.0567C44.4238 9.84558 44.1499 9.71913 43.859 9.70339H42.4464C42.1554 9.71913 41.8816 9.84558 41.6813 10.0567C41.4809 10.2678 41.3692 10.5476 41.3692 10.8384C41.3692 11.1292 41.4809 11.409 41.6813 11.6201C41.8816 11.8312 42.1554 11.9577 42.4464 11.9734ZM62.1733 62.7237H49.927C49.625 62.7237 49.3354 62.8434 49.1218 63.0566C48.9082 63.2698 48.7882 63.5589 48.7882 63.8604C48.7882 64.1618 48.9082 64.451 49.1218 64.6641C49.3354 64.8773 49.625 64.997 49.927 64.997H62.1733C62.4753 64.997 62.765 64.8773 62.9786 64.6641C63.1921 64.451 63.3121 64.1618 63.3121 63.8604C63.3121 63.5589 63.1921 63.2698 62.9786 63.0566C62.765 62.8434 62.4753 62.7237 62.1733 62.7237ZM43.859 62.7237H42.4464C42.1443 62.7237 41.8547 62.8434 41.6411 63.0566C41.4275 63.2698 41.3076 63.5589 41.3076 63.8604C41.3076 64.1618 41.4275 64.451 41.6411 64.6641C41.8547 64.8773 42.1443 64.997 42.4464 64.997H43.859C44.161 64.997 44.4507 64.8773 44.6643 64.6641C44.8778 64.451 44.9978 64.1618 44.9978 63.8604C44.9978 63.5589 44.8778 63.2698 44.6643 63.0566C44.4507 62.8434 44.161 62.7237 43.859 62.7237ZM48.7916 56.287C48.7916 56.5876 48.9112 56.8758 49.1241 57.0884C49.3371 57.3009 49.6259 57.4203 49.927 57.4203H62.1733C62.3278 57.4287 62.4824 57.4055 62.6277 57.3523C62.7729 57.299 62.9058 57.2168 63.0181 57.1105C63.1304 57.0043 63.2199 56.8764 63.2811 56.7345C63.3422 56.5926 63.3737 56.4398 63.3737 56.2853C63.3737 56.1309 63.3422 55.978 63.2811 55.8362C63.2199 55.6943 63.1304 55.5663 63.0181 55.4601C62.9058 55.3539 62.7729 55.2716 62.6277 55.2184C62.4824 55.1651 62.3278 55.142 62.1733 55.1503H49.927C49.7776 55.1503 49.6297 55.1797 49.4917 55.2369C49.3538 55.2941 49.2285 55.3778 49.123 55.4834C49.0175 55.589 48.9339 55.7144 48.8771 55.8523C48.8202 55.9901 48.7911 56.1379 48.7916 56.287ZM43.859 55.1503H42.4464C42.1554 55.1661 41.8816 55.2925 41.6813 55.5036C41.4809 55.7148 41.3692 55.9945 41.3692 56.2853C41.3692 56.5761 41.4809 56.8559 41.6813 57.067C41.8816 57.2781 42.1554 57.4046 42.4464 57.4203H43.859C44.1499 57.4046 44.4238 57.2781 44.6241 57.067C44.8245 56.8559 44.9362 56.5761 44.9362 56.2853C44.9362 55.9945 44.8245 55.7148 44.6241 55.5036C44.4238 55.2925 44.1499 55.1661 43.859 55.1503ZM68.4651 52.2003V73.8471C68.4627 74.0478 68.4075 74.2444 68.3049 74.417C68.2024 74.5897 68.056 74.7323 67.8807 74.8306C67.7054 74.9289 67.5072 74.9794 67.3061 74.9771C67.105 74.9747 66.9081 74.9195 66.7352 74.8171L59.8189 70.6304C59.6853 70.6304 52.2714 75.3771 52.3082 74.9838C52.3282 75.3671 44.941 70.6504 44.8008 70.6304L37.8812 74.8171C37.7083 74.9187 37.5117 74.9732 37.3111 74.9751C37.1105 74.9771 36.9129 74.9264 36.7381 74.8282C36.5633 74.73 36.4174 74.5877 36.315 74.4155C36.2126 74.2433 36.1573 74.0473 36.1546 73.8471V53.5536H15.4291C13.1944 53.551 11.052 52.6637 9.47176 51.0865C7.89157 49.5093 7.00265 47.3708 7 45.1403L7 19.9034C7.00314 19.7017 7.05955 19.5044 7.16353 19.3314C7.26752 19.1584 7.4154 19.0158 7.59224 18.9181C7.76908 18.8203 7.96862 18.7709 8.17072 18.7748C8.37281 18.7787 8.57031 18.8357 8.74326 18.9401L15.4224 23.1101L21.5773 19.2734V8.42005C21.5913 6.19295 22.4832 4.06088 24.06 2.48512C25.6368 0.909358 27.7718 0.0166029 30.0031 0L60.0393 0C62.2737 0.00264805 64.4158 0.890012 65.9955 2.46735C67.5751 4.04469 68.4633 6.18313 68.4651 8.41338V22.7801C72.1571 23.0942 75.5965 24.78 78.1029 27.504C80.6092 30.228 82 33.7918 82 37.4902C82 41.1887 80.6092 44.7524 78.1029 47.4764C75.5965 50.2004 72.1571 51.8862 68.4651 52.2003ZM21.5773 45.1403V21.9535L16.0169 25.4135C15.8361 25.5261 15.6272 25.5858 15.4141 25.5858C15.201 25.5858 14.9921 25.5261 14.8113 25.4135L9.2776 21.9535V45.1403C9.2585 45.9584 9.40344 46.7721 9.70392 47.5335C10.0044 48.2949 10.4543 48.9887 11.0273 49.5741C11.6002 50.1595 12.2847 50.6246 13.0403 50.9422C13.7959 51.2598 14.6076 51.4233 15.4274 51.4233C16.2473 51.4233 17.059 51.2598 17.8146 50.9422C18.5702 50.6246 19.2546 50.1595 19.8276 49.5741C20.4006 48.9887 20.8505 48.2949 21.151 47.5335C21.4515 46.7721 21.5964 45.9584 21.5773 45.1403ZM36.1546 8.41338C36.1528 6.78548 35.5041 5.22477 34.3509 4.07367C33.1976 2.92257 31.634 2.27511 30.0031 2.27335C28.3724 2.27511 26.8091 2.92268 25.6564 4.07387C24.5037 5.22507 23.8558 6.78579 23.8549 8.41338V45.1403C23.8558 46.292 23.6191 47.4315 23.1594 48.4879C22.6998 49.5442 22.0271 50.4948 21.1832 51.2803H36.1546V8.41338ZM66.1875 52.2003C62.4955 51.8862 59.0561 50.2004 56.5497 47.4764C54.0433 44.7524 52.6526 41.1887 52.6526 37.4902C52.6526 33.7918 54.0433 30.228 56.5497 27.504C59.0561 24.78 62.4955 23.0942 66.1875 22.7801V8.41338C66.1866 6.78579 65.5387 5.22507 64.386 4.07387C63.2332 2.92268 61.6699 2.27511 60.0393 2.27335H35.7572C36.6012 3.05872 37.274 4.00925 37.7336 5.06565C38.1933 6.12205 38.43 7.26165 38.4288 8.41338V71.8271C40.4807 70.4858 42.6069 69.2616 44.7974 68.1604C44.7707 67.7671 52.1712 72.4937 52.3048 72.4937L59.2278 68.3337C59.4053 68.2257 59.6093 68.1685 59.8172 68.1685C60.0252 68.1685 60.2291 68.2257 60.4067 68.3337L66.1875 71.8304V52.2003ZM67.3263 25.0001C64.0049 25.0001 60.8195 26.3171 58.4709 28.6613C56.1223 31.0055 54.8028 34.185 54.8028 37.5002C54.8028 40.8154 56.1223 43.9949 58.4709 46.3391C60.8195 48.6833 64.0049 50.0003 67.3263 50.0003C70.6477 50.0003 73.8331 48.6833 76.1817 46.3391C78.5303 43.9949 79.8497 40.8154 79.8497 37.5002C79.8497 34.185 78.5303 31.0055 76.1817 28.6613C73.8331 26.3171 70.6477 25.0001 67.3263 25.0001ZM67.3263 36.3635C65.4728 36.3635 64.5344 35.5435 64.5344 33.9335C64.4676 31.2468 69.0261 30.6368 69.9479 33.1035C70.0648 33.3816 70.2876 33.6019 70.5672 33.7159C70.8468 33.83 71.1604 33.8286 71.439 33.7119C71.7175 33.5952 71.9382 33.3728 72.0525 33.0937C72.1668 32.8146 72.1654 32.5016 72.0485 32.2235C71.7274 31.4897 71.2315 30.8453 70.6041 30.3463C69.9767 29.8473 69.2367 29.5087 68.4484 29.3602C68.5052 28.4768 68.4851 27.2835 67.3096 27.2668C66.1341 27.2502 66.114 28.4768 66.1708 29.3568C64.9392 29.5076 63.8181 30.1405 63.054 31.1163C62.2899 32.0921 61.9455 33.3309 62.0965 34.5602C62.2475 35.7895 62.8816 36.9085 63.8592 37.6712C64.8369 38.4338 66.078 38.7776 67.3096 38.6269C69.1731 38.6269 70.1148 39.4469 70.1148 41.0569C70.1816 43.7436 65.6231 44.3536 64.7014 41.8869C64.6437 41.7493 64.5594 41.6244 64.4532 41.5193C64.3471 41.4143 64.2212 41.3312 64.0828 41.2749C63.9445 41.2185 63.7963 41.19 63.6468 41.1909C63.4974 41.1918 63.3496 41.2222 63.2119 41.2802C61.0712 42.7369 64.5144 45.4069 66.1708 45.6136C66.1174 46.4936 66.1341 47.6869 67.3096 47.7069C68.4851 47.7269 68.5052 46.5003 68.4484 45.6203C69.6607 45.4493 70.7575 44.8106 71.5031 43.8412C72.2487 42.8718 72.5835 41.6492 72.4357 40.436C72.2879 39.2228 71.6692 38.116 70.7125 37.3532C69.7559 36.5905 68.5377 36.2327 67.3196 36.3569L67.3263 36.3635Z"/>
</mask>
<path d="M49.927 17.2768H62.1733C62.4753 17.2768 62.765 17.3965 62.9786 17.6097C63.1921 17.8229 63.3121 18.112 63.3121 18.4134C63.3121 18.7149 63.1921 19.004 62.9786 19.2172C62.765 19.4304 62.4753 19.5501 62.1733 19.5501H49.927C49.625 19.5501 49.3354 19.4304 49.1218 19.2172C48.9082 19.004 48.7882 18.7149 48.7882 18.4134C48.7882 18.112 48.9082 17.8229 49.1218 17.6097C49.3354 17.3965 49.625 17.2768 49.927 17.2768ZM42.4464 19.5501H43.859C44.161 19.5501 44.4507 19.4304 44.6643 19.2172C44.8778 19.004 44.9978 18.7149 44.9978 18.4134C44.9978 18.112 44.8778 17.8229 44.6643 17.6097C44.4507 17.3965 44.161 17.2768 43.859 17.2768H42.4464C42.1443 17.2768 41.8547 17.3965 41.6411 17.6097C41.4275 17.8229 41.3076 18.112 41.3076 18.4134C41.3076 18.7149 41.4275 19.004 41.6411 19.2172C41.8547 19.4304 42.1443 19.5501 42.4464 19.5501ZM49.927 11.9734H62.1733C62.4642 11.9577 62.7381 11.8312 62.9384 11.6201C63.1388 11.409 63.2505 11.1292 63.2505 10.8384C63.2505 10.5476 63.1388 10.2678 62.9384 10.0567C62.7381 9.84558 62.4642 9.71913 62.1733 9.70339H49.927C49.6361 9.71913 49.3623 9.84558 49.1619 10.0567C48.9616 10.2678 48.8499 10.5476 48.8499 10.8384C48.8499 11.1292 48.9616 11.409 49.1619 11.6201C49.3623 11.8312 49.6361 11.9577 49.927 11.9734ZM42.4464 27.1235H51.6536C51.9445 27.1077 52.2184 26.9813 52.4187 26.7702C52.6191 26.559 52.7308 26.2793 52.7308 25.9885C52.7308 25.6977 52.6191 25.4179 52.4187 25.2068C52.2184 24.9957 51.9445 24.8692 51.6536 24.8535H42.4464C42.1554 24.8692 41.8816 24.9957 41.6813 25.2068C41.4809 25.4179 41.3692 25.6977 41.3692 25.9885C41.3692 26.2793 41.4809 26.559 41.6813 26.7702C41.8816 26.9813 42.1554 27.1077 42.4464 27.1235ZM42.4464 34.6969H48.6179C48.9089 34.6811 49.1827 34.5547 49.383 34.3435C49.5834 34.1324 49.6951 33.8527 49.6951 33.5619C49.6951 33.271 49.5834 32.9913 49.383 32.7802C49.1827 32.569 48.9089 32.4426 48.6179 32.4268H42.4464C42.1554 32.4426 41.8816 32.569 41.6813 32.7802C41.4809 32.9913 41.3692 33.271 41.3692 33.5619C41.3692 33.8527 41.4809 34.1324 41.6813 34.3435C41.8816 34.5547 42.1554 34.6811 42.4464 34.6969ZM42.4464 42.2736H48.6179C48.92 42.2736 49.2096 42.1538 49.4232 41.9407C49.6367 41.7275 49.7567 41.4384 49.7567 41.1369C49.7567 40.8354 49.6367 40.5463 49.4232 40.3332C49.2096 40.12 48.92 40.0002 48.6179 40.0002H42.4464C42.1443 40.0002 41.8547 40.12 41.6411 40.3332C41.4275 40.5463 41.3076 40.8354 41.3076 41.1369C41.3076 41.4384 41.4275 41.7275 41.6411 41.9407C41.8547 42.1538 42.1443 42.2736 42.4464 42.2736ZM52.7991 48.7103C52.7982 48.4094 52.6778 48.1211 52.4644 47.9087C52.2509 47.6962 51.9617 47.5769 51.6603 47.5769H42.4464C42.2919 47.5686 42.1373 47.5917 41.992 47.645C41.8468 47.6983 41.7139 47.7805 41.6016 47.8867C41.4892 47.9929 41.3998 48.1209 41.3386 48.2628C41.2775 48.4047 41.2459 48.5575 41.2459 48.7119C41.2459 48.8664 41.2775 49.0192 41.3386 49.1611C41.3998 49.303 41.4892 49.4309 41.6016 49.5372C41.7139 49.6434 41.8468 49.7256 41.992 49.7789C42.1373 49.8322 42.2919 49.8553 42.4464 49.847H51.6536C51.9556 49.847 52.2453 49.7272 52.4589 49.514C52.6724 49.3009 52.7924 49.0117 52.7924 48.7103H52.7991ZM42.4464 11.9734H43.859C44.1499 11.9577 44.4238 11.8312 44.6241 11.6201C44.8245 11.409 44.9362 11.1292 44.9362 10.8384C44.9362 10.5476 44.8245 10.2678 44.6241 10.0567C44.4238 9.84558 44.1499 9.71913 43.859 9.70339H42.4464C42.1554 9.71913 41.8816 9.84558 41.6813 10.0567C41.4809 10.2678 41.3692 10.5476 41.3692 10.8384C41.3692 11.1292 41.4809 11.409 41.6813 11.6201C41.8816 11.8312 42.1554 11.9577 42.4464 11.9734ZM62.1733 62.7237H49.927C49.625 62.7237 49.3354 62.8434 49.1218 63.0566C48.9082 63.2698 48.7882 63.5589 48.7882 63.8604C48.7882 64.1618 48.9082 64.451 49.1218 64.6641C49.3354 64.8773 49.625 64.997 49.927 64.997H62.1733C62.4753 64.997 62.765 64.8773 62.9786 64.6641C63.1921 64.451 63.3121 64.1618 63.3121 63.8604C63.3121 63.5589 63.1921 63.2698 62.9786 63.0566C62.765 62.8434 62.4753 62.7237 62.1733 62.7237ZM43.859 62.7237H42.4464C42.1443 62.7237 41.8547 62.8434 41.6411 63.0566C41.4275 63.2698 41.3076 63.5589 41.3076 63.8604C41.3076 64.1618 41.4275 64.451 41.6411 64.6641C41.8547 64.8773 42.1443 64.997 42.4464 64.997H43.859C44.161 64.997 44.4507 64.8773 44.6643 64.6641C44.8778 64.451 44.9978 64.1618 44.9978 63.8604C44.9978 63.5589 44.8778 63.2698 44.6643 63.0566C44.4507 62.8434 44.161 62.7237 43.859 62.7237ZM48.7916 56.287C48.7916 56.5876 48.9112 56.8758 49.1241 57.0884C49.3371 57.3009 49.6259 57.4203 49.927 57.4203H62.1733C62.3278 57.4287 62.4824 57.4055 62.6277 57.3523C62.7729 57.299 62.9058 57.2168 63.0181 57.1105C63.1304 57.0043 63.2199 56.8764 63.2811 56.7345C63.3422 56.5926 63.3737 56.4398 63.3737 56.2853C63.3737 56.1309 63.3422 55.978 63.2811 55.8362C63.2199 55.6943 63.1304 55.5663 63.0181 55.4601C62.9058 55.3539 62.7729 55.2716 62.6277 55.2184C62.4824 55.1651 62.3278 55.142 62.1733 55.1503H49.927C49.7776 55.1503 49.6297 55.1797 49.4917 55.2369C49.3538 55.2941 49.2285 55.3778 49.123 55.4834C49.0175 55.589 48.9339 55.7144 48.8771 55.8523C48.8202 55.9901 48.7911 56.1379 48.7916 56.287ZM43.859 55.1503H42.4464C42.1554 55.1661 41.8816 55.2925 41.6813 55.5036C41.4809 55.7148 41.3692 55.9945 41.3692 56.2853C41.3692 56.5761 41.4809 56.8559 41.6813 57.067C41.8816 57.2781 42.1554 57.4046 42.4464 57.4203H43.859C44.1499 57.4046 44.4238 57.2781 44.6241 57.067C44.8245 56.8559 44.9362 56.5761 44.9362 56.2853C44.9362 55.9945 44.8245 55.7148 44.6241 55.5036C44.4238 55.2925 44.1499 55.1661 43.859 55.1503ZM68.4651 52.2003V73.8471C68.4627 74.0478 68.4075 74.2444 68.3049 74.417C68.2024 74.5897 68.056 74.7323 67.8807 74.8306C67.7054 74.9289 67.5072 74.9794 67.3061 74.9771C67.105 74.9747 66.9081 74.9195 66.7352 74.8171L59.8189 70.6304C59.6853 70.6304 52.2714 75.3771 52.3082 74.9838C52.3282 75.3671 44.941 70.6504 44.8008 70.6304L37.8812 74.8171C37.7083 74.9187 37.5117 74.9732 37.3111 74.9751C37.1105 74.9771 36.9129 74.9264 36.7381 74.8282C36.5633 74.73 36.4174 74.5877 36.315 74.4155C36.2126 74.2433 36.1573 74.0473 36.1546 73.8471V53.5536H15.4291C13.1944 53.551 11.052 52.6637 9.47176 51.0865C7.89157 49.5093 7.00265 47.3708 7 45.1403L7 19.9034C7.00314 19.7017 7.05955 19.5044 7.16353 19.3314C7.26752 19.1584 7.4154 19.0158 7.59224 18.9181C7.76908 18.8203 7.96862 18.7709 8.17072 18.7748C8.37281 18.7787 8.57031 18.8357 8.74326 18.9401L15.4224 23.1101L21.5773 19.2734V8.42005C21.5913 6.19295 22.4832 4.06088 24.06 2.48512C25.6368 0.909358 27.7718 0.0166029 30.0031 0L60.0393 0C62.2737 0.00264805 64.4158 0.890012 65.9955 2.46735C67.5751 4.04469 68.4633 6.18313 68.4651 8.41338V22.7801C72.1571 23.0942 75.5965 24.78 78.1029 27.504C80.6092 30.228 82 33.7918 82 37.4902C82 41.1887 80.6092 44.7524 78.1029 47.4764C75.5965 50.2004 72.1571 51.8862 68.4651 52.2003ZM21.5773 45.1403V21.9535L16.0169 25.4135C15.8361 25.5261 15.6272 25.5858 15.4141 25.5858C15.201 25.5858 14.9921 25.5261 14.8113 25.4135L9.2776 21.9535V45.1403C9.2585 45.9584 9.40344 46.7721 9.70392 47.5335C10.0044 48.2949 10.4543 48.9887 11.0273 49.5741C11.6002 50.1595 12.2847 50.6246 13.0403 50.9422C13.7959 51.2598 14.6076 51.4233 15.4274 51.4233C16.2473 51.4233 17.059 51.2598 17.8146 50.9422C18.5702 50.6246 19.2546 50.1595 19.8276 49.5741C20.4006 48.9887 20.8505 48.2949 21.151 47.5335C21.4515 46.7721 21.5964 45.9584 21.5773 45.1403ZM36.1546 8.41338C36.1528 6.78548 35.5041 5.22477 34.3509 4.07367C33.1976 2.92257 31.634 2.27511 30.0031 2.27335C28.3724 2.27511 26.8091 2.92268 25.6564 4.07387C24.5037 5.22507 23.8558 6.78579 23.8549 8.41338V45.1403C23.8558 46.292 23.6191 47.4315 23.1594 48.4879C22.6998 49.5442 22.0271 50.4948 21.1832 51.2803H36.1546V8.41338ZM66.1875 52.2003C62.4955 51.8862 59.0561 50.2004 56.5497 47.4764C54.0433 44.7524 52.6526 41.1887 52.6526 37.4902C52.6526 33.7918 54.0433 30.228 56.5497 27.504C59.0561 24.78 62.4955 23.0942 66.1875 22.7801V8.41338C66.1866 6.78579 65.5387 5.22507 64.386 4.07387C63.2332 2.92268 61.6699 2.27511 60.0393 2.27335H35.7572C36.6012 3.05872 37.274 4.00925 37.7336 5.06565C38.1933 6.12205 38.43 7.26165 38.4288 8.41338V71.8271C40.4807 70.4858 42.6069 69.2616 44.7974 68.1604C44.7707 67.7671 52.1712 72.4937 52.3048 72.4937L59.2278 68.3337C59.4053 68.2257 59.6093 68.1685 59.8172 68.1685C60.0252 68.1685 60.2291 68.2257 60.4067 68.3337L66.1875 71.8304V52.2003ZM67.3263 25.0001C64.0049 25.0001 60.8195 26.3171 58.4709 28.6613C56.1223 31.0055 54.8028 34.185 54.8028 37.5002C54.8028 40.8154 56.1223 43.9949 58.4709 46.3391C60.8195 48.6833 64.0049 50.0003 67.3263 50.0003C70.6477 50.0003 73.8331 48.6833 76.1817 46.3391C78.5303 43.9949 79.8497 40.8154 79.8497 37.5002C79.8497 34.185 78.5303 31.0055 76.1817 28.6613C73.8331 26.3171 70.6477 25.0001 67.3263 25.0001ZM67.3263 36.3635C65.4728 36.3635 64.5344 35.5435 64.5344 33.9335C64.4676 31.2468 69.0261 30.6368 69.9479 33.1035C70.0648 33.3816 70.2876 33.6019 70.5672 33.7159C70.8468 33.83 71.1604 33.8286 71.439 33.7119C71.7175 33.5952 71.9382 33.3728 72.0525 33.0937C72.1668 32.8146 72.1654 32.5016 72.0485 32.2235C71.7274 31.4897 71.2315 30.8453 70.6041 30.3463C69.9767 29.8473 69.2367 29.5087 68.4484 29.3602C68.5052 28.4768 68.4851 27.2835 67.3096 27.2668C66.1341 27.2502 66.114 28.4768 66.1708 29.3568C64.9392 29.5076 63.8181 30.1405 63.054 31.1163C62.2899 32.0921 61.9455 33.3309 62.0965 34.5602C62.2475 35.7895 62.8816 36.9085 63.8592 37.6712C64.8369 38.4338 66.078 38.7776 67.3096 38.6269C69.1731 38.6269 70.1148 39.4469 70.1148 41.0569C70.1816 43.7436 65.6231 44.3536 64.7014 41.8869C64.6437 41.7493 64.5594 41.6244 64.4532 41.5193C64.3471 41.4143 64.2212 41.3312 64.0828 41.2749C63.9445 41.2185 63.7963 41.19 63.6468 41.1909C63.4974 41.1918 63.3496 41.2222 63.2119 41.2802C61.0712 42.7369 64.5144 45.4069 66.1708 45.6136C66.1174 46.4936 66.1341 47.6869 67.3096 47.7069C68.4851 47.7269 68.5052 46.5003 68.4484 45.6203C69.6607 45.4493 70.7575 44.8106 71.5031 43.8412C72.2487 42.8718 72.5835 41.6492 72.4357 40.436C72.2879 39.2228 71.6692 38.116 70.7125 37.3532C69.7559 36.5905 68.5377 36.2327 67.3196 36.3569L67.3263 36.3635Z" fill="url(#paint0_linear_2_28)"/>
<path d="M49.927 17.2768H62.1733C62.4753 17.2768 62.765 17.3965 62.9786 17.6097C63.1921 17.8229 63.3121 18.112 63.3121 18.4134C63.3121 18.7149 63.1921 19.004 62.9786 19.2172C62.765 19.4304 62.4753 19.5501 62.1733 19.5501H49.927C49.625 19.5501 49.3354 19.4304 49.1218 19.2172C48.9082 19.004 48.7882 18.7149 48.7882 18.4134C48.7882 18.112 48.9082 17.8229 49.1218 17.6097C49.3354 17.3965 49.625 17.2768 49.927 17.2768ZM42.4464 19.5501H43.859C44.161 19.5501 44.4507 19.4304 44.6643 19.2172C44.8778 19.004 44.9978 18.7149 44.9978 18.4134C44.9978 18.112 44.8778 17.8229 44.6643 17.6097C44.4507 17.3965 44.161 17.2768 43.859 17.2768H42.4464C42.1443 17.2768 41.8547 17.3965 41.6411 17.6097C41.4275 17.8229 41.3076 18.112 41.3076 18.4134C41.3076 18.7149 41.4275 19.004 41.6411 19.2172C41.8547 19.4304 42.1443 19.5501 42.4464 19.5501ZM49.927 11.9734H62.1733C62.4642 11.9577 62.7381 11.8312 62.9384 11.6201C63.1388 11.409 63.2505 11.1292 63.2505 10.8384C63.2505 10.5476 63.1388 10.2678 62.9384 10.0567C62.7381 9.84558 62.4642 9.71913 62.1733 9.70339H49.927C49.6361 9.71913 49.3623 9.84558 49.1619 10.0567C48.9616 10.2678 48.8499 10.5476 48.8499 10.8384C48.8499 11.1292 48.9616 11.409 49.1619 11.6201C49.3623 11.8312 49.6361 11.9577 49.927 11.9734ZM42.4464 27.1235H51.6536C51.9445 27.1077 52.2184 26.9813 52.4187 26.7702C52.6191 26.559 52.7308 26.2793 52.7308 25.9885C52.7308 25.6977 52.6191 25.4179 52.4187 25.2068C52.2184 24.9957 51.9445 24.8692 51.6536 24.8535H42.4464C42.1554 24.8692 41.8816 24.9957 41.6813 25.2068C41.4809 25.4179 41.3692 25.6977 41.3692 25.9885C41.3692 26.2793 41.4809 26.559 41.6813 26.7702C41.8816 26.9813 42.1554 27.1077 42.4464 27.1235ZM42.4464 34.6969H48.6179C48.9089 34.6811 49.1827 34.5547 49.383 34.3435C49.5834 34.1324 49.6951 33.8527 49.6951 33.5619C49.6951 33.271 49.5834 32.9913 49.383 32.7802C49.1827 32.569 48.9089 32.4426 48.6179 32.4268H42.4464C42.1554 32.4426 41.8816 32.569 41.6813 32.7802C41.4809 32.9913 41.3692 33.271 41.3692 33.5619C41.3692 33.8527 41.4809 34.1324 41.6813 34.3435C41.8816 34.5547 42.1554 34.6811 42.4464 34.6969ZM42.4464 42.2736H48.6179C48.92 42.2736 49.2096 42.1538 49.4232 41.9407C49.6367 41.7275 49.7567 41.4384 49.7567 41.1369C49.7567 40.8354 49.6367 40.5463 49.4232 40.3332C49.2096 40.12 48.92 40.0002 48.6179 40.0002H42.4464C42.1443 40.0002 41.8547 40.12 41.6411 40.3332C41.4275 40.5463 41.3076 40.8354 41.3076 41.1369C41.3076 41.4384 41.4275 41.7275 41.6411 41.9407C41.8547 42.1538 42.1443 42.2736 42.4464 42.2736ZM52.7991 48.7103C52.7982 48.4094 52.6778 48.1211 52.4644 47.9087C52.2509 47.6962 51.9617 47.5769 51.6603 47.5769H42.4464C42.2919 47.5686 42.1373 47.5917 41.992 47.645C41.8468 47.6983 41.7139 47.7805 41.6016 47.8867C41.4892 47.9929 41.3998 48.1209 41.3386 48.2628C41.2775 48.4047 41.2459 48.5575 41.2459 48.7119C41.2459 48.8664 41.2775 49.0192 41.3386 49.1611C41.3998 49.303 41.4892 49.4309 41.6016 49.5372C41.7139 49.6434 41.8468 49.7256 41.992 49.7789C42.1373 49.8322 42.2919 49.8553 42.4464 49.847H51.6536C51.9556 49.847 52.2453 49.7272 52.4589 49.514C52.6724 49.3009 52.7924 49.0117 52.7924 48.7103H52.7991ZM42.4464 11.9734H43.859C44.1499 11.9577 44.4238 11.8312 44.6241 11.6201C44.8245 11.409 44.9362 11.1292 44.9362 10.8384C44.9362 10.5476 44.8245 10.2678 44.6241 10.0567C44.4238 9.84558 44.1499 9.71913 43.859 9.70339H42.4464C42.1554 9.71913 41.8816 9.84558 41.6813 10.0567C41.4809 10.2678 41.3692 10.5476 41.3692 10.8384C41.3692 11.1292 41.4809 11.409 41.6813 11.6201C41.8816 11.8312 42.1554 11.9577 42.4464 11.9734ZM62.1733 62.7237H49.927C49.625 62.7237 49.3354 62.8434 49.1218 63.0566C48.9082 63.2698 48.7882 63.5589 48.7882 63.8604C48.7882 64.1618 48.9082 64.451 49.1218 64.6641C49.3354 64.8773 49.625 64.997 49.927 64.997H62.1733C62.4753 64.997 62.765 64.8773 62.9786 64.6641C63.1921 64.451 63.3121 64.1618 63.3121 63.8604C63.3121 63.5589 63.1921 63.2698 62.9786 63.0566C62.765 62.8434 62.4753 62.7237 62.1733 62.7237ZM43.859 62.7237H42.4464C42.1443 62.7237 41.8547 62.8434 41.6411 63.0566C41.4275 63.2698 41.3076 63.5589 41.3076 63.8604C41.3076 64.1618 41.4275 64.451 41.6411 64.6641C41.8547 64.8773 42.1443 64.997 42.4464 64.997H43.859C44.161 64.997 44.4507 64.8773 44.6643 64.6641C44.8778 64.451 44.9978 64.1618 44.9978 63.8604C44.9978 63.5589 44.8778 63.2698 44.6643 63.0566C44.4507 62.8434 44.161 62.7237 43.859 62.7237ZM48.7916 56.287C48.7916 56.5876 48.9112 56.8758 49.1241 57.0884C49.3371 57.3009 49.6259 57.4203 49.927 57.4203H62.1733C62.3278 57.4287 62.4824 57.4055 62.6277 57.3523C62.7729 57.299 62.9058 57.2168 63.0181 57.1105C63.1304 57.0043 63.2199 56.8764 63.2811 56.7345C63.3422 56.5926 63.3737 56.4398 63.3737 56.2853C63.3737 56.1309 63.3422 55.978 63.2811 55.8362C63.2199 55.6943 63.1304 55.5663 63.0181 55.4601C62.9058 55.3539 62.7729 55.2716 62.6277 55.2184C62.4824 55.1651 62.3278 55.142 62.1733 55.1503H49.927C49.7776 55.1503 49.6297 55.1797 49.4917 55.2369C49.3538 55.2941 49.2285 55.3778 49.123 55.4834C49.0175 55.589 48.9339 55.7144 48.8771 55.8523C48.8202 55.9901 48.7911 56.1379 48.7916 56.287ZM43.859 55.1503H42.4464C42.1554 55.1661 41.8816 55.2925 41.6813 55.5036C41.4809 55.7148 41.3692 55.9945 41.3692 56.2853C41.3692 56.5761 41.4809 56.8559 41.6813 57.067C41.8816 57.2781 42.1554 57.4046 42.4464 57.4203H43.859C44.1499 57.4046 44.4238 57.2781 44.6241 57.067C44.8245 56.8559 44.9362 56.5761 44.9362 56.2853C44.9362 55.9945 44.8245 55.7148 44.6241 55.5036C44.4238 55.2925 44.1499 55.1661 43.859 55.1503ZM68.4651 52.2003V73.8471C68.4627 74.0478 68.4075 74.2444 68.3049 74.417C68.2024 74.5897 68.056 74.7323 67.8807 74.8306C67.7054 74.9289 67.5072 74.9794 67.3061 74.9771C67.105 74.9747 66.9081 74.9195 66.7352 74.8171L59.8189 70.6304C59.6853 70.6304 52.2714 75.3771 52.3082 74.9838C52.3282 75.3671 44.941 70.6504 44.8008 70.6304L37.8812 74.8171C37.7083 74.9187 37.5117 74.9732 37.3111 74.9751C37.1105 74.9771 36.9129 74.9264 36.7381 74.8282C36.5633 74.73 36.4174 74.5877 36.315 74.4155C36.2126 74.2433 36.1573 74.0473 36.1546 73.8471V53.5536H15.4291C13.1944 53.551 11.052 52.6637 9.47176 51.0865C7.89157 49.5093 7.00265 47.3708 7 45.1403L7 19.9034C7.00314 19.7017 7.05955 19.5044 7.16353 19.3314C7.26752 19.1584 7.4154 19.0158 7.59224 18.9181C7.76908 18.8203 7.96862 18.7709 8.17072 18.7748C8.37281 18.7787 8.57031 18.8357 8.74326 18.9401L15.4224 23.1101L21.5773 19.2734V8.42005C21.5913 6.19295 22.4832 4.06088 24.06 2.48512C25.6368 0.909358 27.7718 0.0166029 30.0031 0L60.0393 0C62.2737 0.00264805 64.4158 0.890012 65.9955 2.46735C67.5751 4.04469 68.4633 6.18313 68.4651 8.41338V22.7801C72.1571 23.0942 75.5965 24.78 78.1029 27.504C80.6092 30.228 82 33.7918 82 37.4902C82 41.1887 80.6092 44.7524 78.1029 47.4764C75.5965 50.2004 72.1571 51.8862 68.4651 52.2003ZM21.5773 45.1403V21.9535L16.0169 25.4135C15.8361 25.5261 15.6272 25.5858 15.4141 25.5858C15.201 25.5858 14.9921 25.5261 14.8113 25.4135L9.2776 21.9535V45.1403C9.2585 45.9584 9.40344 46.7721 9.70392 47.5335C10.0044 48.2949 10.4543 48.9887 11.0273 49.5741C11.6002 50.1595 12.2847 50.6246 13.0403 50.9422C13.7959 51.2598 14.6076 51.4233 15.4274 51.4233C16.2473 51.4233 17.059 51.2598 17.8146 50.9422C18.5702 50.6246 19.2546 50.1595 19.8276 49.5741C20.4006 48.9887 20.8505 48.2949 21.151 47.5335C21.4515 46.7721 21.5964 45.9584 21.5773 45.1403ZM36.1546 8.41338C36.1528 6.78548 35.5041 5.22477 34.3509 4.07367C33.1976 2.92257 31.634 2.27511 30.0031 2.27335C28.3724 2.27511 26.8091 2.92268 25.6564 4.07387C24.5037 5.22507 23.8558 6.78579 23.8549 8.41338V45.1403C23.8558 46.292 23.6191 47.4315 23.1594 48.4879C22.6998 49.5442 22.0271 50.4948 21.1832 51.2803H36.1546V8.41338ZM66.1875 52.2003C62.4955 51.8862 59.0561 50.2004 56.5497 47.4764C54.0433 44.7524 52.6526 41.1887 52.6526 37.4902C52.6526 33.7918 54.0433 30.228 56.5497 27.504C59.0561 24.78 62.4955 23.0942 66.1875 22.7801V8.41338C66.1866 6.78579 65.5387 5.22507 64.386 4.07387C63.2332 2.92268 61.6699 2.27511 60.0393 2.27335H35.7572C36.6012 3.05872 37.274 4.00925 37.7336 5.06565C38.1933 6.12205 38.43 7.26165 38.4288 8.41338V71.8271C40.4807 70.4858 42.6069 69.2616 44.7974 68.1604C44.7707 67.7671 52.1712 72.4937 52.3048 72.4937L59.2278 68.3337C59.4053 68.2257 59.6093 68.1685 59.8172 68.1685C60.0252 68.1685 60.2291 68.2257 60.4067 68.3337L66.1875 71.8304V52.2003ZM67.3263 25.0001C64.0049 25.0001 60.8195 26.3171 58.4709 28.6613C56.1223 31.0055 54.8028 34.185 54.8028 37.5002C54.8028 40.8154 56.1223 43.9949 58.4709 46.3391C60.8195 48.6833 64.0049 50.0003 67.3263 50.0003C70.6477 50.0003 73.8331 48.6833 76.1817 46.3391C78.5303 43.9949 79.8497 40.8154 79.8497 37.5002C79.8497 34.185 78.5303 31.0055 76.1817 28.6613C73.8331 26.3171 70.6477 25.0001 67.3263 25.0001ZM67.3263 36.3635C65.4728 36.3635 64.5344 35.5435 64.5344 33.9335C64.4676 31.2468 69.0261 30.6368 69.9479 33.1035C70.0648 33.3816 70.2876 33.6019 70.5672 33.7159C70.8468 33.83 71.1604 33.8286 71.439 33.7119C71.7175 33.5952 71.9382 33.3728 72.0525 33.0937C72.1668 32.8146 72.1654 32.5016 72.0485 32.2235C71.7274 31.4897 71.2315 30.8453 70.6041 30.3463C69.9767 29.8473 69.2367 29.5087 68.4484 29.3602C68.5052 28.4768 68.4851 27.2835 67.3096 27.2668C66.1341 27.2502 66.114 28.4768 66.1708 29.3568C64.9392 29.5076 63.8181 30.1405 63.054 31.1163C62.2899 32.0921 61.9455 33.3309 62.0965 34.5602C62.2475 35.7895 62.8816 36.9085 63.8592 37.6712C64.8369 38.4338 66.078 38.7776 67.3096 38.6269C69.1731 38.6269 70.1148 39.4469 70.1148 41.0569C70.1816 43.7436 65.6231 44.3536 64.7014 41.8869C64.6437 41.7493 64.5594 41.6244 64.4532 41.5193C64.3471 41.4143 64.2212 41.3312 64.0828 41.2749C63.9445 41.2185 63.7963 41.19 63.6468 41.1909C63.4974 41.1918 63.3496 41.2222 63.2119 41.2802C61.0712 42.7369 64.5144 45.4069 66.1708 45.6136C66.1174 46.4936 66.1341 47.6869 67.3096 47.7069C68.4851 47.7269 68.5052 46.5003 68.4484 45.6203C69.6607 45.4493 70.7575 44.8106 71.5031 43.8412C72.2487 42.8718 72.5835 41.6492 72.4357 40.436C72.2879 39.2228 71.6692 38.116 70.7125 37.3532C69.7559 36.5905 68.5377 36.2327 67.3196 36.3569L67.3263 36.3635Z" stroke="url(#paint1_linear_2_28)" mask="url(#path-1-outside-1_2_28)"/>
</g>
<defs>
<linearGradient id="paint0_linear_2_28" x1="22.8348" y1="1.25012" x2="44.5" y2="75.0069" gradientUnits="userSpaceOnUse">
<stop stop-color="#F36E2F"/>
<stop offset="1" stop-color="#FFA519"/>
</linearGradient>
<linearGradient id="paint1_linear_2_28" x1="44.5" y1="0" x2="44.5" y2="75.0069" gradientUnits="userSpaceOnUse">
<stop stop-color="#F36E2F"/>
<stop offset="1" stop-color="#FFA519"/>
</linearGradient>
<clipPath id="clip0_2_28">
<rect width="90" height="90" fill="white"/>
</clipPath>
</defs>
</svg>
