<svg width="60" height="60" viewBox="0 0 60 60" fill="none" xmlns="http://www.w3.org/2000/svg">
<circle cx="30" cy="30" r="30" fill="url(#paint0_linear_50_7)"/>
<path d="M20.9393 36.9393C20.3536 37.5251 20.3536 38.4749 20.9393 39.0607C21.5251 39.6464 22.4749 39.6464 23.0607 39.0607L20.9393 36.9393ZM39.5 22C39.5 21.1716 38.8284 20.5 38 20.5L24.5 20.5C23.6716 20.5 23 21.1716 23 22C23 22.8284 23.6716 23.5 24.5 23.5L36.5 23.5L36.5 35.5C36.5 36.3284 37.1716 37 38 37C38.8284 37 39.5 36.3284 39.5 35.5L39.5 22ZM23.0607 39.0607L39.0607 23.0607L36.9393 20.9393L20.9393 36.9393L23.0607 39.0607Z" fill="white"/>
<defs>
<linearGradient id="paint0_linear_50_7" x1="50" y1="1.39077e-07" x2="12" y2="60" gradientUnits="userSpaceOnUse">
<stop stop-color="#2E459C"/>
<stop offset="1" stop-color="#04E8F4"/>
</linearGradient>
</defs>
</svg>
