<svg width="40" height="41" viewBox="0 0 40 41" fill="none" xmlns="http://www.w3.org/2000/svg">
<path fill-rule="evenodd" clip-rule="evenodd" d="M7 20.2207C7 13.041 12.8203 7.2207 20 7.2207C27.1797 7.2207 33 13.041 33 20.2207C33 27.4004 27.1797 33.2207 20 33.2207C12.8203 33.2207 7 27.4004 7 20.2207ZM20 11.913C20.5523 11.913 21 12.3607 21 12.913V19.3334C21 19.5904 21.1168 19.8336 21.3176 19.9941L25.2401 23.1321C25.6713 23.4771 25.7413 24.1064 25.3963 24.5377C25.0512 24.969 24.422 25.0389 23.9907 24.6939L20.0682 21.5559C19.393 21.0157 19 20.198 19 19.3334V12.913C19 12.3607 19.4477 11.913 20 11.913Z" fill="#2E459C"/>
</svg>
