<svg width="40" height="41" viewBox="0 0 40 41" fill="none" xmlns="http://www.w3.org/2000/svg">
<path fill-rule="evenodd" clip-rule="evenodd" d="M24.4453 8.0384C23.2956 7.95995 21.8695 7.95996 20.0375 7.95996H19.9625C18.1305 7.95996 16.7044 7.95995 15.5547 8.0384C14.3881 8.118 13.4331 8.28168 12.5558 8.64505C10.3506 9.55849 8.59853 11.3106 7.68508 13.5158C7.32172 14.3931 7.15803 15.3481 7.07844 16.5146C6.99999 17.6644 7 19.0904 7 20.9224V20.9975C7 22.8295 6.99999 24.2555 7.07844 25.4053C7.15803 26.5718 7.32172 27.5269 7.68508 28.4041C8.59853 30.6094 10.3506 32.3614 12.5558 33.2749C13.4331 33.6382 14.3881 33.8019 15.5547 33.8815C16.7044 33.96 18.1304 33.96 19.9624 33.96H20.0376C21.8696 33.96 23.2956 33.96 24.4453 33.8815C25.6119 33.8019 26.5669 33.6382 27.4442 33.2749C29.6494 32.3614 31.4015 30.6094 32.3149 28.4041C32.6783 27.5269 32.842 26.5718 32.9216 25.4053C33 24.2555 33 22.8295 33 20.9975V20.9224C33 19.0904 33 17.6644 32.9216 16.5146C32.842 15.3481 32.6783 14.3931 32.3149 13.5158C31.4015 11.3106 29.6494 9.55849 27.4442 8.64505C26.5669 8.28168 25.6119 8.118 24.4453 8.0384ZM20 14.96C16.6863 14.96 14 17.6463 14 20.96C14 24.2737 16.6863 26.96 20 26.96C20.5523 26.96 21 27.4077 21 27.96C21 28.5122 20.5523 28.96 20 28.96C15.5817 28.96 12 25.3782 12 20.96C12 16.5417 15.5817 12.96 20 12.96C24.4183 12.96 28 16.5417 28 20.96C28 22.1148 27.6312 22.9769 27.0363 23.548C26.4667 24.0948 25.7726 24.2933 25.25 24.2933C24.5416 24.2933 23.9936 24.0394 23.586 23.679C22.7641 24.7612 21.4637 25.46 20 25.46C17.5147 25.46 15.5 23.4452 15.5 20.96C15.5 18.4747 17.5147 16.46 20 16.46C22.4853 16.46 24.5 18.4747 24.5 20.96C24.5 21.2367 24.5683 21.6439 24.7299 21.9431C24.8055 22.0832 24.8838 22.1668 24.9527 22.2142C25.0116 22.2547 25.0975 22.2933 25.25 22.2933C25.3107 22.2933 25.4916 22.2585 25.6512 22.1052C25.7855 21.9763 26 21.6718 26 20.96C26 17.6463 23.3137 14.96 20 14.96Z" fill="#2E459C"/>
<path d="M20 18.46C21.3807 18.46 22.5 19.5792 22.5 20.96C22.5 22.3407 21.3807 23.46 20 23.46C18.6193 23.46 17.5 22.3407 17.5 20.96C17.5 19.5792 18.6193 18.46 20 18.46Z" fill="#2E459C"/>
</svg>
