<svg width="40" height="41" viewBox="0 0 40 41" fill="none" xmlns="http://www.w3.org/2000/svg">
<path d="M17.6667 16.6356C17.6667 15.2714 18.7377 14.2137 20 14.2137C21.2623 14.2137 22.3333 15.2714 22.3333 16.6356C22.3333 17.9999 21.2623 19.0576 20 19.0576C18.7377 19.0576 17.6667 17.9999 17.6667 16.6356Z" fill="#2E459C"/>
<path fill-rule="evenodd" clip-rule="evenodd" d="M17.7641 31.3987C18.2412 31.8321 18.6395 32.1789 18.9195 32.4183L19.2857 32.791C19.6778 33.1901 20.3222 33.1901 20.7143 32.791L21.0805 32.4183C21.3605 32.1789 21.7588 31.8321 22.2359 31.3987C23.1887 30.5333 24.4625 29.317 25.7395 27.918C27.013 26.5228 28.3102 24.9238 29.2943 23.2928C30.2662 21.6823 31 19.9317 31 18.2583C31 12.109 26.0936 7.09033 20 7.09033C13.9064 7.09033 9 12.109 9 18.2583C9 19.9317 9.73383 21.6823 10.7057 23.2928C11.6898 24.9238 12.987 26.5228 14.2605 27.918C15.5375 29.317 16.8113 30.5333 17.7641 31.3987ZM15.6667 16.6356C15.6667 14.2232 17.5804 12.2192 20 12.2192C22.4196 12.2192 24.3333 14.2232 24.3333 16.6356C24.3333 19.0481 22.4196 21.0521 20 21.0521C17.5804 21.0521 15.6667 19.0481 15.6667 16.6356Z" fill="#2E459C"/>
</svg>
