<svg width="48" height="48" viewBox="0 0 48 48" fill="none" xmlns="http://www.w3.org/2000/svg">
<circle cx="24" cy="24" r="24" fill="url(#paint0_linear_30_6)"/>
<path d="M22.9952 16.111C22.1932 15.0746 20.7812 14.7239 19.5714 15.2272C19.4022 15.2977 19.2254 15.3978 18.9822 15.5355L18.957 15.5498L18.9431 15.5577L18.9296 15.5661C18.3913 15.9019 18.0381 16.4137 17.8044 16.9291C17.5696 17.4466 17.4331 18.0158 17.354 18.5393C17.2079 19.5068 17.2402 20.4505 17.3029 20.842C17.3042 20.8594 17.3058 20.8794 17.3079 20.9019C17.3146 20.9715 17.3264 21.0656 17.3474 21.1854C17.3894 21.4248 17.4679 21.7667 17.6149 22.2196C17.9085 23.1246 18.4763 24.4759 19.5752 26.3427C20.6747 28.2105 21.6378 29.4599 22.3375 30.2507C22.6873 30.646 22.971 30.9265 23.1725 31.1121C23.2733 31.2049 23.3535 31.2739 23.4112 31.3217C23.44 31.3456 23.4632 31.3642 23.4804 31.3777L23.4989 31.3921C24.0036 31.7983 24.8473 32.3391 25.7934 32.6775C26.7259 33.0111 27.9108 33.2009 28.9636 32.6624L28.9777 32.6551L28.9916 32.6473L29.0278 32.6268C29.2641 32.493 29.4395 32.3938 29.5846 32.2864C30.642 31.5045 31.0433 30.1122 30.5249 28.9027C30.454 28.7374 30.3525 28.565 30.2187 28.3379L30.1972 28.3013L29.9666 27.9096L29.9482 27.8783C29.7155 27.483 29.5296 27.1671 29.35 26.9282C29.1134 26.6137 28.7985 26.4304 28.5573 26.3146C28.224 26.1547 27.8532 26.0908 27.5233 26.0607C27.1881 26.0302 26.8327 26.0302 26.5136 26.0317L26.431 26.0321C26.1315 26.0336 25.8642 26.035 25.6184 26.02C25.3463 26.0034 25.1624 25.9691 25.0455 25.9241C24.9828 25.8999 24.9208 25.8714 24.8596 25.8386C24.7951 25.8039 24.7582 25.7786 24.735 25.759C24.5407 25.5949 24.0323 25.1219 23.5596 24.3189C23.0066 23.3794 22.9314 22.7189 22.9255 22.6588C22.9161 22.4828 22.9333 22.3072 22.9753 22.1359C23.0077 22.004 23.0838 21.8245 23.2118 21.5832C23.3007 21.4158 23.3973 21.2493 23.5028 21.0677C23.55 20.9864 23.599 20.902 23.6499 20.8131C23.8054 20.5414 23.9717 20.2382 24.0979 19.9326C24.222 19.6323 24.3312 19.2747 24.3255 18.9C24.323 18.7333 24.3078 18.4958 24.2144 18.2494C24.095 17.9344 23.888 17.5829 23.6258 17.1376L23.5924 17.0809L23.3616 16.6894L23.3367 16.647C23.2052 16.4234 23.1045 16.2523 22.9952 16.111Z" fill="white"/>
<defs>
<linearGradient id="paint0_linear_30_6" x1="40" y1="1.11262e-07" x2="9.6" y2="48" gradientUnits="userSpaceOnUse">
<stop stop-color="#2E459C"/>
<stop offset="1" stop-color="#04E8F4"/>
</linearGradient>
</defs>
</svg>
