<svg width="40" height="41" viewBox="0 0 40 41" fill="none" xmlns="http://www.w3.org/2000/svg">
<path d="M18.6602 9.89704C17.5909 8.51519 15.7083 8.04754 14.0953 8.71867C13.8696 8.81257 13.6338 8.9461 13.3096 9.12974L13.2759 9.14882L13.2574 9.15929L13.2394 9.17054C12.5218 9.61824 12.0508 10.3007 11.7392 10.9878C11.4262 11.6778 11.2441 12.4368 11.1387 13.1347C10.9438 14.4247 10.987 15.683 11.0706 16.205C11.0722 16.2282 11.0744 16.2548 11.0772 16.2849C11.0861 16.3777 11.1019 16.5032 11.1299 16.6628C11.1858 16.9821 11.2906 17.438 11.4865 18.0418C11.878 19.2486 12.6351 21.0502 14.1003 23.5393C15.5662 26.0297 16.8505 27.6955 17.7833 28.75C18.2497 29.2771 18.6279 29.651 18.8967 29.8985C19.0311 30.0222 19.138 30.1142 19.2149 30.1779C19.2533 30.2098 19.2842 30.2346 19.3072 30.2527L19.3319 30.2718C20.0048 30.8135 21.1297 31.5344 22.3912 31.9857C23.6345 32.4304 25.2144 32.6835 26.6181 31.9655L26.637 31.9559L26.6555 31.9454L26.7038 31.918C27.0188 31.7397 27.2526 31.6074 27.4462 31.4642C28.856 30.4217 29.391 28.5653 28.6998 26.9527C28.6054 26.7323 28.47 26.5024 28.2916 26.1996L28.2629 26.1508L27.9555 25.6285L27.9309 25.5867C27.6207 25.0596 27.3728 24.6385 27.1333 24.32C26.8179 23.9006 26.398 23.6562 26.0764 23.5019C25.6321 23.2887 25.1376 23.2034 24.6977 23.1633C24.2508 23.1226 23.777 23.1226 23.3514 23.1246L23.2413 23.1251C22.8421 23.1272 22.4856 23.129 22.1579 23.109C21.7951 23.0868 21.5499 23.0411 21.394 22.9811C21.3104 22.9489 21.2277 22.9109 21.1461 22.8671C21.0601 22.8209 21.0109 22.7872 20.9799 22.7611C20.7209 22.5422 20.043 21.9115 19.4128 20.8409C18.6754 19.5882 18.5752 18.7076 18.5674 18.6275C18.5548 18.3928 18.5777 18.1587 18.6338 17.9303C18.677 17.7543 18.7784 17.515 18.9491 17.1933C19.0675 16.97 19.1964 16.7481 19.3371 16.5059C19.4 16.3975 19.4654 16.285 19.5332 16.1665C19.7405 15.8042 19.9623 15.3999 20.1306 14.9926C20.296 14.5921 20.4415 14.1152 20.434 13.6157C20.4306 13.3934 20.4104 13.0767 20.2859 12.7483C20.1267 12.3283 19.8507 11.8595 19.501 11.2658L19.4566 11.1903L19.1488 10.6682L19.1156 10.6117C18.9402 10.3136 18.8061 10.0855 18.6602 9.89704Z" fill="#2E459C"/>
</svg>
